<svg width="68" height="68" viewBox="0 0 68 68" fill="none" xmlns="http://www.w3.org/2000/svg">
<g filter="url(#filter0_d_136_1437)">
<circle cx="33" cy="31" r="26" fill="#F5F9FF"/>
</g>
<path d="M48 31.5C48 29.4645 47.5991 27.449 46.8201 25.5684C46.0412 23.6879 44.8995 21.9792 43.4602 20.5398C42.0208 19.1005 40.3121 17.9588 38.4316 17.1799C36.551 16.4009 34.5355 16 32.5 16V19.1C34.9524 19.0999 37.3497 19.8271 39.3889 21.1894C41.428 22.5518 43.0174 24.4883 43.9561 26.7539C44.5793 28.2586 44.9001 29.8713 44.9 31.5H48ZM17 28.4V20.65C17 20.2389 17.1633 19.8447 17.454 19.554C17.7447 19.2633 18.1389 19.1 18.55 19.1H26.3C26.7111 19.1 27.1053 19.2633 27.396 19.554C27.6867 19.8447 27.85 20.2389 27.85 20.65V26.85C27.85 27.2611 27.6867 27.6553 27.396 27.946C27.1053 28.2367 26.7111 28.4 26.3 28.4H23.2C23.2 31.6887 24.5064 34.8427 26.8319 37.1681C29.1573 39.4936 32.3113 40.8 35.6 40.8V37.7C35.6 37.2889 35.7633 36.8947 36.054 36.604C36.3447 36.3133 36.7389 36.15 37.15 36.15H43.35C43.7611 36.15 44.1553 36.3133 44.446 36.604C44.7367 36.8947 44.9 37.2889 44.9 37.7V45.45C44.9 45.8611 44.7367 46.2553 44.446 46.546C44.1553 46.8367 43.7611 47 43.35 47H35.6C25.3281 47 17 38.6718 17 28.4Z" fill="#0961F5"/>
<path d="M41.0916 27.9414C41.5591 29.0696 41.7998 30.2789 41.8 31.5002H39.01C39.01 29.7736 38.3241 28.1178 37.1033 26.8969C35.8824 25.6761 34.2266 24.9902 32.5 24.9902V22.2002C34.3393 22.2003 36.1373 22.7458 37.6666 23.7677C39.1959 24.7896 40.3878 26.2421 41.0916 27.9414Z" fill="#0961F5"/>
<defs>
<filter id="filter0_d_136_1437" x="0" y="0" width="68" height="68" filterUnits="userSpaceOnUse" color-interpolation-filters="sRGB">
<feFlood flood-opacity="0" result="BackgroundImageFix"/>
<feColorMatrix in="SourceAlpha" type="matrix" values="0 0 0 0 0 0 0 0 0 0 0 0 0 0 0 0 0 0 127 0" result="hardAlpha"/>
<feOffset dx="1" dy="3"/>
<feGaussianBlur stdDeviation="4"/>
<feColorMatrix type="matrix" values="0 0 0 0 0 0 0 0 0 0 0 0 0 0 0 0 0 0 0.1 0"/>
<feBlend mode="normal" in2="BackgroundImageFix" result="effect1_dropShadow_136_1437"/>
<feBlend mode="normal" in="SourceGraphic" in2="effect1_dropShadow_136_1437" result="shape"/>
</filter>
</defs>
</svg>
