<svg width="18" height="16" viewBox="0 0 18 16" fill="none" xmlns="http://www.w3.org/2000/svg">
<path fill-rule="evenodd" clip-rule="evenodd" d="M0 0.75C0 0.335786 0.335786 0 0.75 0H16.75C17.1642 0 17.5 0.335786 17.5 0.75C17.5 1.16421 17.1642 1.5 16.75 1.5H0.75C0.335786 1.5 0 1.16421 0 0.75ZM0 7.75C0 7.33579 0.335786 7 0.75 7H8.75C9.16421 7 9.5 7.33579 9.5 7.75C9.5 8.16421 9.16421 8.5 8.75 8.5H0.75C0.335786 8.5 0 8.16421 0 7.75ZM0 14.75C0 14.3358 0.335786 14 0.75 14H16.75C17.1642 14 17.5 14.3358 17.5 14.75C17.5 15.1642 17.1642 15.5 16.75 15.5H0.75C0.335786 15.5 0 15.1642 0 14.75Z" fill="#202244"/>
</svg>
