<svg width="68" height="68" viewBox="0 0 68 68" fill="none" xmlns="http://www.w3.org/2000/svg">
<path d="M8.10057 30.7746C8.09936 35.1581 9.24041 39.4383 11.4101 43.2109L7.89307 56.1007L21.0345 52.642C24.6692 54.6281 28.7417 55.6689 32.8801 55.6692H32.891C46.5527 55.6692 57.6737 44.5101 57.6796 30.7942C57.6822 24.1479 55.106 17.8981 50.4253 13.1961C45.7455 8.49454 39.5215 5.90391 32.89 5.90088C19.2266 5.90088 8.10641 17.0593 8.10077 30.7746" fill="url(#paint0_linear_136_1432)"/>
<g filter="url(#filter0_d_136_1432)">
<path d="M7.21556 30.7659C7.21415 35.3072 8.39609 39.7404 10.6431 43.6481L7 57L20.6126 53.4173C24.3633 55.47 28.5862 56.5523 32.8833 56.5539H32.8944C47.0463 56.5539 58.5668 44.9935 58.5728 30.7866C58.5752 23.9014 55.9063 17.427 51.0585 12.5565C46.21 7.68668 39.7634 5.00283 32.8944 5C18.7401 5 7.2212 16.5588 7.21556 30.7659ZM15.3224 42.9751L14.8141 42.1652C12.6774 38.755 11.5497 34.8142 11.5513 30.7675C11.5557 18.959 21.1297 9.35175 32.9024 9.35175C38.6037 9.35418 43.9616 11.5851 47.9915 15.6327C52.0212 19.6807 54.2387 25.0617 54.2373 30.7849C54.232 42.5935 44.6578 52.202 32.8944 52.202H32.8859C29.0556 52.1999 25.2991 51.1674 22.023 49.2162L21.2434 48.7521L13.1654 50.878L15.3224 42.9751Z" fill="#F5F9FF"/>
</g>
<path d="M26.4761 19.994C25.9954 18.9216 25.4896 18.9 25.0325 18.8812C24.6582 18.865 24.2303 18.8662 23.8028 18.8662C23.3749 18.8662 22.6797 19.0278 22.092 19.6719C21.5038 20.3165 19.8462 21.8744 19.8462 25.043C19.8462 28.2116 22.1454 31.274 22.4659 31.7041C22.7868 32.1334 26.9046 38.8438 33.4262 41.4254C38.8461 43.5707 39.9491 43.144 41.1254 43.0364C42.3019 42.9293 44.9217 41.479 45.4561 39.9751C45.991 38.4714 45.991 37.1824 45.8306 36.9131C45.6703 36.6447 45.2424 36.4835 44.6007 36.1616C43.9591 35.8397 40.8045 34.2814 40.2164 34.0664C39.6282 33.8517 39.2005 33.7445 38.7726 34.3894C38.3447 35.0332 37.116 36.4835 36.7415 36.9131C36.3674 37.3436 35.9929 37.3972 35.3515 37.075C34.7094 36.7519 32.6431 36.0726 30.1916 33.8788C28.2842 32.1716 26.9965 30.0635 26.6222 29.4186C26.2479 28.7748 26.5821 28.4257 26.9038 28.1048C27.1921 27.8162 27.5456 27.3528 27.8668 26.9768C28.1867 26.6007 28.2935 26.3324 28.5074 25.9028C28.7215 25.4729 28.6144 25.0968 28.4542 24.7747C28.2935 24.4525 27.0466 21.2674 26.4761 19.994Z" fill="white"/>
<defs>
<filter id="filter0_d_136_1432" x="0" y="0" width="67.5728" height="68" filterUnits="userSpaceOnUse" color-interpolation-filters="sRGB">
<feFlood flood-opacity="0" result="BackgroundImageFix"/>
<feColorMatrix in="SourceAlpha" type="matrix" values="0 0 0 0 0 0 0 0 0 0 0 0 0 0 0 0 0 0 127 0" result="hardAlpha"/>
<feOffset dx="1" dy="3"/>
<feGaussianBlur stdDeviation="4"/>
<feColorMatrix type="matrix" values="0 0 0 0 0 0 0 0 0 0 0 0 0 0 0 0 0 0 0.1 0"/>
<feBlend mode="normal" in2="BackgroundImageFix" result="effect1_dropShadow_136_1432"/>
<feBlend mode="normal" in="SourceGraphic" in2="effect1_dropShadow_136_1432" result="shape"/>
</filter>
<linearGradient id="paint0_linear_136_1432" x1="2497.22" y1="5025.89" x2="2497.22" y2="5.90088" gradientUnits="userSpaceOnUse">
<stop stop-color="#1FAF38"/>
<stop offset="1" stop-color="#60D669"/>
</linearGradient>
</defs>
</svg>
